<?xml version="1.0" encoding="UTF-8"?>
<svg id="Layer_1" data-name="Layer 1" xmlns="http://www.w3.org/2000/svg" viewBox="0 0 213.2 193.13">
  <defs>
    <style>
      .cls-1 {
        fill: #e22a35;
      }

      .cls-2 {
        fill: #62945b;
      }
    </style>
  </defs>
  <path class="cls-1" d="M54.3.21c19.67-1.64,38.71,6.38,52.4,20.3,4.81-3.57,8.3-7.41,13.55-10.65,34.61-21.34,80.3-6.36,90.68,33.97,8.83,34.32-9.6,64.51-31.16,89.36-20.39,23.51-45.77,42.65-71.56,59.89-2.33.49-6.78-3.27-8.98-4.71C60.93,163.37,1.52,112.61.03,63.32-.94,31.48,22.07,2.91,54.3.21ZM159.61,64.67c-19.96-29.04-61.19-35.62-90.4-15.77-44.04,29.93-36,99.46,13.88,118.09,49.86,18.62,99.95-22.97,89.2-75.14,5.16-5.5,16.91-10.11,18.21-18.31,3.19-20.11-19.92-24.36-29.05-8.87h-1.84Z"/>
  <path class="cls-2" d="M175.3,62.03c7.03-1.48,11.22,5.92,7.26,12-1.41,2.16-7.95,6.43-10.46,8.31-8.23,6.14-33.6,20.38-38.37,26.38-3.71,4.66-2.06,13.14-9.76,20.27-10.16,9.42-41.24,18.18-34.79-4.76,3.03-10.78,17-20.4,27.83-21.9,2.81-.39,5.78.29,8.39-.06,6.88-.92,35.69-30.38,44.08-36.62,1.46-1.09,4.2-3.27,5.83-3.61Z"/>
  <path class="cls-2" d="M159.59,100.35c3,43.55-42.36,71.11-80.04,48.61-10.17-6.07-18.75-17.12-22.18-28.49-17.44-57.87,55.53-93.83,91.89-47.8l-6.89,6.03c-24.36-32.14-77.54-18.2-81.29,22.14-5.82,62.64,83.74,72,91.04,8.37.16-1.4-.95-3.42-.51-4.21.24-.43,7.51-5.18,7.99-4.64Z"/>
</svg>